<svg class="w-8 h-8" fill="none" stroke="currentColor" viewBox="0 0 24 24" xmlns="http://www.w3.org/2000/svg">
    <!-- Pell -->
    <path stroke="none" d="M0 0h24v24H0z" fill="none"></path>
    <path stroke-linecap="round" stroke-linejoin="round" stroke-width="1.5"
        d="M4 5
            a2 10 10 0 1 -2 14
            M4 5
            a2 2 0 00-1.519.698
            M4 5
            a5 5 0 0 1 3 -0.3
            a3 2   0 0 1 -3 6

            m 2.5 5
            l 3 -0.3
            a 1 1 0 0 0 1 -1
            a 3 8 0 0 0 -3.7 -0.2
            a 1 3 0 0 0 -0.5 2
            a 0.3 0.3 0 0 0 4.5 1

            m 1 2
            a 1 3 20 0 0 4 -14.5
            a 1 2.5 -5 0 0 0.5 11

            m 0 3.5
            a 1 3 20 0 0 5 -14.5
            a 1 3 -5 0 0 0.5 14.5">
    </path>
</svg>
